ISO-10303-21;
HEADER;
/* Generated by software containing ST-Developer
 * from STEP Tools, Inc. (www.steptools.com) 
 */

FILE_DESCRIPTION(
/* description */ (''),
/* implementation_level */ '2;1');

FILE_NAME(
/* name */ 'bend 1000x1000 90.step',
/* time_stamp */ '2026-09-12T16:48:21+02:00',
/* author */ (''),
/* organization */ (''),
/* preprocessor_version */ 'ST-DEVELOPER v20.2',
/* originating_system */ 'Autodesk Translation Framework v15.15.0.0',
/* authorisation */ '');

FILE_SCHEMA (('AUTOMOTIVE_DESIGN { 1 0 10303 214 3 1 1 }'));
ENDSEC;

DATA;
#10=MECHANICAL_DESIGN_GEOMETRIC_PRESENTATION_REPRESENTATION('',(#13),#875);
#11=SHAPE_REPRESENTATION_RELATIONSHIP('SRR','None',#882,#12);
#12=ADVANCED_BREP_SHAPE_REPRESENTATION('',(#14),#874);
#13=STYLED_ITEM('',(#892),#14);
#14=MANIFOLD_SOLID_BREP('Body1',#535);
#15=CIRCLE('',#560,152.);
#16=CIRCLE('',#561,152.);
#17=CIRCLE('',#563,1092.);
#18=CIRCLE('',#564,1092.);
#19=CIRCLE('',#566,1094.);
#20=CIRCLE('',#567,1094.);
#21=CIRCLE('',#569,150.);
#22=CIRCLE('',#570,150.);
#23=CYLINDRICAL_SURFACE('',#559,152.);
#24=CYLINDRICAL_SURFACE('',#562,1092.);
#25=CYLINDRICAL_SURFACE('',#565,1094.);
#26=CYLINDRICAL_SURFACE('',#568,150.);
#27=FACE_BOUND('',#60,.T.);
#28=FACE_BOUND('',#66,.T.);
#29=FACE_BOUND('',#76,.T.);
#30=FACE_BOUND('',#78,.T.);
#31=FACE_OUTER_BOUND('',#59,.T.);
#32=FACE_OUTER_BOUND('',#61,.T.);
#33=FACE_OUTER_BOUND('',#62,.T.);
#34=FACE_OUTER_BOUND('',#63,.T.);
#35=FACE_OUTER_BOUND('',#64,.T.);
#36=FACE_OUTER_BOUND('',#65,.T.);
#37=FACE_OUTER_BOUND('',#67,.T.);
#38=FACE_OUTER_BOUND('',#68,.T.);
#39=FACE_OUTER_BOUND('',#69,.T.);
#40=FACE_OUTER_BOUND('',#70,.T.);
#41=FACE_OUTER_BOUND('',#71,.T.);
#42=FACE_OUTER_BOUND('',#72,.T.);
#43=FACE_OUTER_BOUND('',#73,.T.);
#44=FACE_OUTER_BOUND('',#74,.T.);
#45=FACE_OUTER_BOUND('',#75,.T.);
#46=FACE_OUTER_BOUND('',#77,.T.);
#47=FACE_OUTER_BOUND('',#79,.T.);
#48=FACE_OUTER_BOUND('',#80,.T.);
#49=FACE_OUTER_BOUND('',#81,.T.);
#50=FACE_OUTER_BOUND('',#82,.T.);
#51=FACE_OUTER_BOUND('',#83,.T.);
#52=FACE_OUTER_BOUND('',#84,.T.);
#53=FACE_OUTER_BOUND('',#85,.T.);
#54=FACE_OUTER_BOUND('',#86,.T.);
#55=FACE_OUTER_BOUND('',#87,.T.);
#56=FACE_OUTER_BOUND('',#88,.T.);
#57=FACE_OUTER_BOUND('',#89,.T.);
#58=FACE_OUTER_BOUND('',#90,.T.);
#59=EDGE_LOOP('',(#339,#340,#341,#342));
#60=EDGE_LOOP('',(#343,#344,#345,#346));
#61=EDGE_LOOP('',(#347,#348,#349,#350));
#62=EDGE_LOOP('',(#351,#352,#353,#354));
#63=EDGE_LOOP('',(#355,#356,#357,#358));
#64=EDGE_LOOP('',(#359,#360,#361,#362));
#65=EDGE_LOOP('',(#363,#364,#365,#366));
#66=EDGE_LOOP('',(#367,#368,#369,#370));
#67=EDGE_LOOP('',(#371,#372,#373,#374));
#68=EDGE_LOOP('',(#375,#376,#377,#378));
#69=EDGE_LOOP('',(#379,#380,#381,#382));
#70=EDGE_LOOP('',(#383,#384,#385,#386));
#71=EDGE_LOOP('',(#387,#388,#389,#390));
#72=EDGE_LOOP('',(#391,#392,#393,#394));
#73=EDGE_LOOP('',(#395,#396,#397,#398));
#74=EDGE_LOOP('',(#399,#400,#401,#402));
#75=EDGE_LOOP('',(#403,#404,#405,#406));
#76=EDGE_LOOP('',(#407,#408,#409,#410));
#77=EDGE_LOOP('',(#411,#412,#413,#414));
#78=EDGE_LOOP('',(#415,#416,#417,#418));
#79=EDGE_LOOP('',(#419,#420,#421,#422));
#80=EDGE_LOOP('',(#423,#424,#425,#426));
#81=EDGE_LOOP('',(#427,#428,#429,#430));
#82=EDGE_LOOP('',(#431,#432,#433,#434));
#83=EDGE_LOOP('',(#435,#436,#437,#438));
#84=EDGE_LOOP('',(#439,#440,#441,#442,#443,#444,#445,#446));
#85=EDGE_LOOP('',(#447,#448,#449,#450));
#86=EDGE_LOOP('',(#451,#452,#453,#454,#455,#456,#457,#458));
#87=EDGE_LOOP('',(#459,#460,#461,#462));
#88=EDGE_LOOP('',(#463,#464,#465,#466,#467,#468,#469,#470));
#89=EDGE_LOOP('',(#471,#472,#473,#474));
#90=EDGE_LOOP('',(#475,#476,#477,#478,#479,#480,#481,#482));
#91=LINE('',#727,#155);
#92=LINE('',#729,#156);
#93=LINE('',#731,#157);
#94=LINE('',#732,#158);
#95=LINE('',#735,#159);
#96=LINE('',#737,#160);
#97=LINE('',#739,#161);
#98=LINE('',#740,#162);
#99=LINE('',#743,#163);
#100=LINE('',#745,#164);
#101=LINE('',#746,#165);
#102=LINE('',#749,#166);
#103=LINE('',#750,#167);
#104=LINE('',#753,#168);
#105=LINE('',#754,#169);
#106=LINE('',#756,#170);
#107=LINE('',#760,#171);
#108=LINE('',#762,#172);
#109=LINE('',#764,#173);
#110=LINE('',#765,#174);
#111=LINE('',#769,#175);
#112=LINE('',#770,#176);
#113=LINE('',#771,#177);
#114=LINE('',#775,#178);
#115=LINE('',#776,#179);
#116=LINE('',#777,#180);
#117=LINE('',#781,#181);
#118=LINE('',#782,#182);
#119=LINE('',#783,#183);
#120=LINE('',#787,#184);
#121=LINE('',#788,#185);
#122=LINE('',#789,#186);
#123=LINE('',#793,#187);
#124=LINE('',#799,#188);
#125=LINE('',#805,#189);
#126=LINE('',#811,#190);
#127=LINE('',#817,#191);
#128=LINE('',#819,#192);
#129=LINE('',#821,#193);
#130=LINE('',#822,#194);
#131=LINE('',#825,#195);
#132=LINE('',#827,#196);
#133=LINE('',#829,#197);
#134=LINE('',#830,#198);
#135=LINE('',#834,#199);
#136=LINE('',#836,#200);
#137=LINE('',#838,#201);
#138=LINE('',#839,#202);
#139=LINE('',#842,#203);
#140=LINE('',#844,#204);
#141=LINE('',#846,#205);
#142=LINE('',#847,#206);
#143=LINE('',#849,#207);
#144=LINE('',#850,#208);
#145=LINE('',#852,#209);
#146=LINE('',#854,#210);
#147=LINE('',#857,#211);
#148=LINE('',#858,#212);
#149=LINE('',#860,#213);
#150=LINE('',#862,#214);
#151=LINE('',#863,#215);
#152=LINE('',#865,#216);
#153=LINE('',#867,#217);
#154=LINE('',#870,#218);
#155=VECTOR('',#589,10.);
#156=VECTOR('',#590,10.);
#157=VECTOR('',#591,10.);
#158=VECTOR('',#592,10.);
#159=VECTOR('',#593,10.);
#160=VECTOR('',#594,10.);
#161=VECTOR('',#595,10.);
#162=VECTOR('',#596,10.);
#163=VECTOR('',#599,10.);
#164=VECTOR('',#600,10.);
#165=VECTOR('',#601,10.);
#166=VECTOR('',#604,10.);
#167=VECTOR('',#605,10.);
#168=VECTOR('',#608,10.);
#169=VECTOR('',#609,10.);
#170=VECTOR('',#612,10.);
#171=VECTOR('',#615,10.);
#172=VECTOR('',#616,10.);
#173=VECTOR('',#617,10.);
#174=VECTOR('',#618,10.);
#175=VECTOR('',#621,10.);
#176=VECTOR('',#622,10.);
#177=VECTOR('',#623,10.);
#178=VECTOR('',#626,10.);
#179=VECTOR('',#627,10.);
#180=VECTOR('',#628,10.);
#181=VECTOR('',#631,10.);
#182=VECTOR('',#632,10.);
#183=VECTOR('',#633,10.);
#184=VECTOR('',#636,10.);
#185=VECTOR('',#637,10.);
#186=VECTOR('',#638,10.);
#187=VECTOR('',#641,10.);
#188=VECTOR('',#648,10.);
#189=VECTOR('',#655,10.);
#190=VECTOR('',#662,10.);
#191=VECTOR('',#669,10.);
#192=VECTOR('',#670,10.);
#193=VECTOR('',#671,10.);
#194=VECTOR('',#672,10.);
#195=VECTOR('',#673,10.);
#196=VECTOR('',#674,10.);
#197=VECTOR('',#675,10.);
#198=VECTOR('',#676,10.);
#199=VECTOR('',#679,10.);
#200=VECTOR('',#680,10.);
#201=VECTOR('',#681,10.);
#202=VECTOR('',#682,10.);
#203=VECTOR('',#683,10.);
#204=VECTOR('',#684,10.);
#205=VECTOR('',#685,10.);
#206=VECTOR('',#686,10.);
#207=VECTOR('',#689,10.);
#208=VECTOR('',#690,10.);
#209=VECTOR('',#693,10.);
#210=VECTOR('',#696,10.);
#211=VECTOR('',#701,10.);
#212=VECTOR('',#702,10.);
#213=VECTOR('',#705,10.);
#214=VECTOR('',#708,10.);
#215=VECTOR('',#709,10.);
#216=VECTOR('',#712,10.);
#217=VECTOR('',#715,10.);
#218=VECTOR('',#720,10.);
#219=VERTEX_POINT('',#725);
#220=VERTEX_POINT('',#726);
#221=VERTEX_POINT('',#728);
#222=VERTEX_POINT('',#730);
#223=VERTEX_POINT('',#733);
#224=VERTEX_POINT('',#734);
#225=VERTEX_POINT('',#736);
#226=VERTEX_POINT('',#738);
#227=VERTEX_POINT('',#742);
#228=VERTEX_POINT('',#744);
#229=VERTEX_POINT('',#748);
#230=VERTEX_POINT('',#752);
#231=VERTEX_POINT('',#758);
#232=VERTEX_POINT('',#759);
#233=VERTEX_POINT('',#761);
#234=VERTEX_POINT('',#763);
#235=VERTEX_POINT('',#767);
#236=VERTEX_POINT('',#768);
#237=VERTEX_POINT('',#773);
#238=VERTEX_POINT('',#774);
#239=VERTEX_POINT('',#779);
#240=VERTEX_POINT('',#780);
#241=VERTEX_POINT('',#785);
#242=VERTEX_POINT('',#786);
#243=VERTEX_POINT('',#791);
#244=VERTEX_POINT('',#792);
#245=VERTEX_POINT('',#797);
#246=VERTEX_POINT('',#798);
#247=VERTEX_POINT('',#803);
#248=VERTEX_POINT('',#804);
#249=VERTEX_POINT('',#809);
#250=VERTEX_POINT('',#810);
#251=VERTEX_POINT('',#815);
#252=VERTEX_POINT('',#816);
#253=VERTEX_POINT('',#818);
#254=VERTEX_POINT('',#820);
#255=VERTEX_POINT('',#823);
#256=VERTEX_POINT('',#824);
#257=VERTEX_POINT('',#826);
#258=VERTEX_POINT('',#828);
#259=VERTEX_POINT('',#832);
#260=VERTEX_POINT('',#833);
#261=VERTEX_POINT('',#835);
#262=VERTEX_POINT('',#837);
#263=VERTEX_POINT('',#840);
#264=VERTEX_POINT('',#841);
#265=VERTEX_POINT('',#843);
#266=VERTEX_POINT('',#845);
#267=EDGE_CURVE('',#219,#220,#91,.T.);
#268=EDGE_CURVE('',#220,#221,#92,.T.);
#269=EDGE_CURVE('',#221,#222,#93,.T.);
#270=EDGE_CURVE('',#222,#219,#94,.T.);
#271=EDGE_CURVE('',#223,#224,#95,.T.);
#272=EDGE_CURVE('',#225,#223,#96,.T.);
#273=EDGE_CURVE('',#226,#225,#97,.T.);
#274=EDGE_CURVE('',#224,#226,#98,.T.);
#275=EDGE_CURVE('',#222,#227,#99,.T.);
#276=EDGE_CURVE('',#227,#228,#100,.T.);
#277=EDGE_CURVE('',#219,#228,#101,.T.);
#278=EDGE_CURVE('',#221,#229,#102,.T.);
#279=EDGE_CURVE('',#229,#227,#103,.T.);
#280=EDGE_CURVE('',#220,#230,#104,.T.);
#281=EDGE_CURVE('',#230,#229,#105,.T.);
#282=EDGE_CURVE('',#228,#230,#106,.T.);
#283=EDGE_CURVE('',#231,#232,#107,.T.);
#284=EDGE_CURVE('',#233,#231,#108,.T.);
#285=EDGE_CURVE('',#234,#233,#109,.T.);
#286=EDGE_CURVE('',#232,#234,#110,.T.);
#287=EDGE_CURVE('',#235,#236,#111,.T.);
#288=EDGE_CURVE('',#235,#232,#112,.T.);
#289=EDGE_CURVE('',#236,#234,#113,.T.);
#290=EDGE_CURVE('',#237,#238,#114,.T.);
#291=EDGE_CURVE('',#237,#233,#115,.T.);
#292=EDGE_CURVE('',#238,#231,#116,.T.);
#293=EDGE_CURVE('',#239,#240,#117,.T.);
#294=EDGE_CURVE('',#239,#226,#118,.T.);
#295=EDGE_CURVE('',#240,#225,#119,.T.);
#296=EDGE_CURVE('',#241,#242,#120,.T.);
#297=EDGE_CURVE('',#241,#223,#121,.T.);
#298=EDGE_CURVE('',#242,#224,#122,.T.);
#299=EDGE_CURVE('',#243,#244,#123,.T.);
#300=EDGE_CURVE('',#243,#235,#15,.T.);
#301=EDGE_CURVE('',#244,#236,#16,.T.);
#302=EDGE_CURVE('',#245,#246,#124,.T.);
#303=EDGE_CURVE('',#245,#237,#17,.T.);
#304=EDGE_CURVE('',#246,#238,#18,.T.);
#305=EDGE_CURVE('',#247,#248,#125,.T.);
#306=EDGE_CURVE('',#247,#239,#19,.T.);
#307=EDGE_CURVE('',#248,#240,#20,.T.);
#308=EDGE_CURVE('',#249,#250,#126,.T.);
#309=EDGE_CURVE('',#249,#241,#21,.T.);
#310=EDGE_CURVE('',#250,#242,#22,.T.);
#311=EDGE_CURVE('',#251,#252,#127,.T.);
#312=EDGE_CURVE('',#252,#253,#128,.T.);
#313=EDGE_CURVE('',#253,#254,#129,.T.);
#314=EDGE_CURVE('',#254,#251,#130,.T.);
#315=EDGE_CURVE('',#255,#256,#131,.T.);
#316=EDGE_CURVE('',#256,#257,#132,.T.);
#317=EDGE_CURVE('',#257,#258,#133,.T.);
#318=EDGE_CURVE('',#258,#255,#134,.T.);
#319=EDGE_CURVE('',#259,#260,#135,.T.);
#320=EDGE_CURVE('',#261,#259,#136,.T.);
#321=EDGE_CURVE('',#262,#261,#137,.T.);
#322=EDGE_CURVE('',#260,#262,#138,.T.);
#323=EDGE_CURVE('',#263,#264,#139,.T.);
#324=EDGE_CURVE('',#265,#263,#140,.T.);
#325=EDGE_CURVE('',#266,#265,#141,.T.);
#326=EDGE_CURVE('',#264,#266,#142,.T.);
#327=EDGE_CURVE('',#251,#259,#143,.T.);
#328=EDGE_CURVE('',#252,#260,#144,.T.);
#329=EDGE_CURVE('',#253,#262,#145,.T.);
#330=EDGE_CURVE('',#254,#261,#146,.T.);
#331=EDGE_CURVE('',#257,#244,#147,.T.);
#332=EDGE_CURVE('',#256,#243,#148,.T.);
#333=EDGE_CURVE('',#258,#245,#149,.T.);
#334=EDGE_CURVE('',#266,#250,#150,.T.);
#335=EDGE_CURVE('',#265,#249,#151,.T.);
#336=EDGE_CURVE('',#264,#247,#152,.T.);
#337=EDGE_CURVE('',#255,#246,#153,.T.);
#338=EDGE_CURVE('',#263,#248,#154,.T.);
#339=ORIENTED_EDGE('',*,*,#267,.T.);
#340=ORIENTED_EDGE('',*,*,#268,.T.);
#341=ORIENTED_EDGE('',*,*,#269,.T.);
#342=ORIENTED_EDGE('',*,*,#270,.T.);
#343=ORIENTED_EDGE('',*,*,#271,.F.);
#344=ORIENTED_EDGE('',*,*,#272,.F.);
#345=ORIENTED_EDGE('',*,*,#273,.F.);
#346=ORIENTED_EDGE('',*,*,#274,.F.);
#347=ORIENTED_EDGE('',*,*,#270,.F.);
#348=ORIENTED_EDGE('',*,*,#275,.T.);
#349=ORIENTED_EDGE('',*,*,#276,.T.);
#350=ORIENTED_EDGE('',*,*,#277,.F.);
#351=ORIENTED_EDGE('',*,*,#269,.F.);
#352=ORIENTED_EDGE('',*,*,#278,.T.);
#353=ORIENTED_EDGE('',*,*,#279,.T.);
#354=ORIENTED_EDGE('',*,*,#275,.F.);
#355=ORIENTED_EDGE('',*,*,#268,.F.);
#356=ORIENTED_EDGE('',*,*,#280,.T.);
#357=ORIENTED_EDGE('',*,*,#281,.T.);
#358=ORIENTED_EDGE('',*,*,#278,.F.);
#359=ORIENTED_EDGE('',*,*,#267,.F.);
#360=ORIENTED_EDGE('',*,*,#277,.T.);
#361=ORIENTED_EDGE('',*,*,#282,.T.);
#362=ORIENTED_EDGE('',*,*,#280,.F.);
#363=ORIENTED_EDGE('',*,*,#282,.F.);
#364=ORIENTED_EDGE('',*,*,#276,.F.);
#365=ORIENTED_EDGE('',*,*,#279,.F.);
#366=ORIENTED_EDGE('',*,*,#281,.F.);
#367=ORIENTED_EDGE('',*,*,#283,.F.);
#368=ORIENTED_EDGE('',*,*,#284,.F.);
#369=ORIENTED_EDGE('',*,*,#285,.F.);
#370=ORIENTED_EDGE('',*,*,#286,.F.);
#371=ORIENTED_EDGE('',*,*,#287,.F.);
#372=ORIENTED_EDGE('',*,*,#288,.T.);
#373=ORIENTED_EDGE('',*,*,#286,.T.);
#374=ORIENTED_EDGE('',*,*,#289,.F.);
#375=ORIENTED_EDGE('',*,*,#290,.F.);
#376=ORIENTED_EDGE('',*,*,#291,.T.);
#377=ORIENTED_EDGE('',*,*,#284,.T.);
#378=ORIENTED_EDGE('',*,*,#292,.F.);
#379=ORIENTED_EDGE('',*,*,#293,.F.);
#380=ORIENTED_EDGE('',*,*,#294,.T.);
#381=ORIENTED_EDGE('',*,*,#273,.T.);
#382=ORIENTED_EDGE('',*,*,#295,.F.);
#383=ORIENTED_EDGE('',*,*,#296,.F.);
#384=ORIENTED_EDGE('',*,*,#297,.T.);
#385=ORIENTED_EDGE('',*,*,#271,.T.);
#386=ORIENTED_EDGE('',*,*,#298,.F.);
#387=ORIENTED_EDGE('',*,*,#299,.F.);
#388=ORIENTED_EDGE('',*,*,#300,.T.);
#389=ORIENTED_EDGE('',*,*,#287,.T.);
#390=ORIENTED_EDGE('',*,*,#301,.F.);
#391=ORIENTED_EDGE('',*,*,#302,.F.);
#392=ORIENTED_EDGE('',*,*,#303,.T.);
#393=ORIENTED_EDGE('',*,*,#290,.T.);
#394=ORIENTED_EDGE('',*,*,#304,.F.);
#395=ORIENTED_EDGE('',*,*,#305,.F.);
#396=ORIENTED_EDGE('',*,*,#306,.T.);
#397=ORIENTED_EDGE('',*,*,#293,.T.);
#398=ORIENTED_EDGE('',*,*,#307,.F.);
#399=ORIENTED_EDGE('',*,*,#308,.F.);
#400=ORIENTED_EDGE('',*,*,#309,.T.);
#401=ORIENTED_EDGE('',*,*,#296,.T.);
#402=ORIENTED_EDGE('',*,*,#310,.F.);
#403=ORIENTED_EDGE('',*,*,#311,.T.);
#404=ORIENTED_EDGE('',*,*,#312,.T.);
#405=ORIENTED_EDGE('',*,*,#313,.T.);
#406=ORIENTED_EDGE('',*,*,#314,.T.);
#407=ORIENTED_EDGE('',*,*,#315,.T.);
#408=ORIENTED_EDGE('',*,*,#316,.T.);
#409=ORIENTED_EDGE('',*,*,#317,.T.);
#410=ORIENTED_EDGE('',*,*,#318,.T.);
#411=ORIENTED_EDGE('',*,*,#319,.F.);
#412=ORIENTED_EDGE('',*,*,#320,.F.);
#413=ORIENTED_EDGE('',*,*,#321,.F.);
#414=ORIENTED_EDGE('',*,*,#322,.F.);
#415=ORIENTED_EDGE('',*,*,#323,.F.);
#416=ORIENTED_EDGE('',*,*,#324,.F.);
#417=ORIENTED_EDGE('',*,*,#325,.F.);
#418=ORIENTED_EDGE('',*,*,#326,.F.);
#419=ORIENTED_EDGE('',*,*,#311,.F.);
#420=ORIENTED_EDGE('',*,*,#327,.T.);
#421=ORIENTED_EDGE('',*,*,#319,.T.);
#422=ORIENTED_EDGE('',*,*,#328,.F.);
#423=ORIENTED_EDGE('',*,*,#312,.F.);
#424=ORIENTED_EDGE('',*,*,#328,.T.);
#425=ORIENTED_EDGE('',*,*,#322,.T.);
#426=ORIENTED_EDGE('',*,*,#329,.F.);
#427=ORIENTED_EDGE('',*,*,#313,.F.);
#428=ORIENTED_EDGE('',*,*,#329,.T.);
#429=ORIENTED_EDGE('',*,*,#321,.T.);
#430=ORIENTED_EDGE('',*,*,#330,.F.);
#431=ORIENTED_EDGE('',*,*,#314,.F.);
#432=ORIENTED_EDGE('',*,*,#330,.T.);
#433=ORIENTED_EDGE('',*,*,#320,.T.);
#434=ORIENTED_EDGE('',*,*,#327,.F.);
#435=ORIENTED_EDGE('',*,*,#299,.T.);
#436=ORIENTED_EDGE('',*,*,#331,.F.);
#437=ORIENTED_EDGE('',*,*,#316,.F.);
#438=ORIENTED_EDGE('',*,*,#332,.T.);
#439=ORIENTED_EDGE('',*,*,#331,.T.);
#440=ORIENTED_EDGE('',*,*,#301,.T.);
#441=ORIENTED_EDGE('',*,*,#289,.T.);
#442=ORIENTED_EDGE('',*,*,#285,.T.);
#443=ORIENTED_EDGE('',*,*,#291,.F.);
#444=ORIENTED_EDGE('',*,*,#303,.F.);
#445=ORIENTED_EDGE('',*,*,#333,.F.);
#446=ORIENTED_EDGE('',*,*,#317,.F.);
#447=ORIENTED_EDGE('',*,*,#308,.T.);
#448=ORIENTED_EDGE('',*,*,#334,.F.);
#449=ORIENTED_EDGE('',*,*,#325,.T.);
#450=ORIENTED_EDGE('',*,*,#335,.T.);
#451=ORIENTED_EDGE('',*,*,#334,.T.);
#452=ORIENTED_EDGE('',*,*,#310,.T.);
#453=ORIENTED_EDGE('',*,*,#298,.T.);
#454=ORIENTED_EDGE('',*,*,#274,.T.);
#455=ORIENTED_EDGE('',*,*,#294,.F.);
#456=ORIENTED_EDGE('',*,*,#306,.F.);
#457=ORIENTED_EDGE('',*,*,#336,.F.);
#458=ORIENTED_EDGE('',*,*,#326,.T.);
#459=ORIENTED_EDGE('',*,*,#302,.T.);
#460=ORIENTED_EDGE('',*,*,#337,.F.);
#461=ORIENTED_EDGE('',*,*,#318,.F.);
#462=ORIENTED_EDGE('',*,*,#333,.T.);
#463=ORIENTED_EDGE('',*,*,#337,.T.);
#464=ORIENTED_EDGE('',*,*,#304,.T.);
#465=ORIENTED_EDGE('',*,*,#292,.T.);
#466=ORIENTED_EDGE('',*,*,#283,.T.);
#467=ORIENTED_EDGE('',*,*,#288,.F.);
#468=ORIENTED_EDGE('',*,*,#300,.F.);
#469=ORIENTED_EDGE('',*,*,#332,.F.);
#470=ORIENTED_EDGE('',*,*,#315,.F.);
#471=ORIENTED_EDGE('',*,*,#305,.T.);
#472=ORIENTED_EDGE('',*,*,#338,.F.);
#473=ORIENTED_EDGE('',*,*,#323,.T.);
#474=ORIENTED_EDGE('',*,*,#336,.T.);
#475=ORIENTED_EDGE('',*,*,#338,.T.);
#476=ORIENTED_EDGE('',*,*,#307,.T.);
#477=ORIENTED_EDGE('',*,*,#295,.T.);
#478=ORIENTED_EDGE('',*,*,#272,.T.);
#479=ORIENTED_EDGE('',*,*,#297,.F.);
#480=ORIENTED_EDGE('',*,*,#309,.F.);
#481=ORIENTED_EDGE('',*,*,#335,.F.);
#482=ORIENTED_EDGE('',*,*,#324,.T.);
#483=PLANE('',#549);
#484=PLANE('',#550);
#485=PLANE('',#551);
#486=PLANE('',#552);
#487=PLANE('',#553);
#488=PLANE('',#554);
#489=PLANE('',#555);
#490=PLANE('',#556);
#491=PLANE('',#557);
#492=PLANE('',#558);
#493=PLANE('',#571);
#494=PLANE('',#572);
#495=PLANE('',#573);
#496=PLANE('',#574);
#497=PLANE('',#575);
#498=PLANE('',#576);
#499=PLANE('',#577);
#500=PLANE('',#578);
#501=PLANE('',#579);
#502=PLANE('',#580);
#503=PLANE('',#581);
#504=PLANE('',#582);
#505=PLANE('',#583);
#506=PLANE('',#584);
#507=ADVANCED_FACE('',(#31,#27),#483,.T.);
#508=ADVANCED_FACE('',(#32),#484,.F.);
#509=ADVANCED_FACE('',(#33),#485,.F.);
#510=ADVANCED_FACE('',(#34),#486,.F.);
#511=ADVANCED_FACE('',(#35),#487,.F.);
#512=ADVANCED_FACE('',(#36,#28),#488,.F.);
#513=ADVANCED_FACE('',(#37),#489,.F.);
#514=ADVANCED_FACE('',(#38),#490,.F.);
#515=ADVANCED_FACE('',(#39),#491,.F.);
#516=ADVANCED_FACE('',(#40),#492,.F.);
#517=ADVANCED_FACE('',(#41),#23,.T.);
#518=ADVANCED_FACE('',(#42),#24,.F.);
#519=ADVANCED_FACE('',(#43),#25,.T.);
#520=ADVANCED_FACE('',(#44),#26,.F.);
#521=ADVANCED_FACE('',(#45,#29),#493,.T.);
#522=ADVANCED_FACE('',(#46,#30),#494,.F.);
#523=ADVANCED_FACE('',(#47),#495,.F.);
#524=ADVANCED_FACE('',(#48),#496,.F.);
#525=ADVANCED_FACE('',(#49),#497,.F.);
#526=ADVANCED_FACE('',(#50),#498,.F.);
#527=ADVANCED_FACE('',(#51),#499,.F.);
#528=ADVANCED_FACE('',(#52),#500,.F.);
#529=ADVANCED_FACE('',(#53),#501,.F.);
#530=ADVANCED_FACE('',(#54),#502,.F.);
#531=ADVANCED_FACE('',(#55),#503,.F.);
#532=ADVANCED_FACE('',(#56),#504,.F.);
#533=ADVANCED_FACE('',(#57),#505,.F.);
#534=ADVANCED_FACE('',(#58),#506,.F.);
#535=CLOSED_SHELL('',(#507,#508,#509,#510,#511,#512,#513,#514,#515,#516,
#517,#518,#519,#520,#521,#522,#523,#524,#525,#526,#527,#528,#529,#530,#531,
#532,#533,#534));
#536=DERIVED_UNIT_ELEMENT(#538,1.);
#537=DERIVED_UNIT_ELEMENT(#877,-3.);
#538=(
MASS_UNIT()
NAMED_UNIT(*)
SI_UNIT(.KILO.,.GRAM.)
);
#539=DERIVED_UNIT((#536,#537));
#540=MEASURE_REPRESENTATION_ITEM('density measure',
POSITIVE_RATIO_MEASURE(7850.),#539);
#541=PROPERTY_DEFINITION_REPRESENTATION(#546,#543);
#542=PROPERTY_DEFINITION_REPRESENTATION(#547,#544);
#543=REPRESENTATION('material name',(#545),#874);
#544=REPRESENTATION('density',(#540),#874);
#545=DESCRIPTIVE_REPRESENTATION_ITEM('Steel','Steel');
#546=PROPERTY_DEFINITION('material property','material name',#884);
#547=PROPERTY_DEFINITION('material property','density of part',#884);
#548=AXIS2_PLACEMENT_3D('',#723,#585,#586);
#549=AXIS2_PLACEMENT_3D('',#724,#587,#588);
#550=AXIS2_PLACEMENT_3D('',#741,#597,#598);
#551=AXIS2_PLACEMENT_3D('',#747,#602,#603);
#552=AXIS2_PLACEMENT_3D('',#751,#606,#607);
#553=AXIS2_PLACEMENT_3D('',#755,#610,#611);
#554=AXIS2_PLACEMENT_3D('',#757,#613,#614);
#555=AXIS2_PLACEMENT_3D('',#766,#619,#620);
#556=AXIS2_PLACEMENT_3D('',#772,#624,#625);
#557=AXIS2_PLACEMENT_3D('',#778,#629,#630);
#558=AXIS2_PLACEMENT_3D('',#784,#634,#635);
#559=AXIS2_PLACEMENT_3D('',#790,#639,#640);
#560=AXIS2_PLACEMENT_3D('',#794,#642,#643);
#561=AXIS2_PLACEMENT_3D('',#795,#644,#645);
#562=AXIS2_PLACEMENT_3D('',#796,#646,#647);
#563=AXIS2_PLACEMENT_3D('',#800,#649,#650);
#564=AXIS2_PLACEMENT_3D('',#801,#651,#652);
#565=AXIS2_PLACEMENT_3D('',#802,#653,#654);
#566=AXIS2_PLACEMENT_3D('',#806,#656,#657);
#567=AXIS2_PLACEMENT_3D('',#807,#658,#659);
#568=AXIS2_PLACEMENT_3D('',#808,#660,#661);
#569=AXIS2_PLACEMENT_3D('',#812,#663,#664);
#570=AXIS2_PLACEMENT_3D('',#813,#665,#666);
#571=AXIS2_PLACEMENT_3D('',#814,#667,#668);
#572=AXIS2_PLACEMENT_3D('',#831,#677,#678);
#573=AXIS2_PLACEMENT_3D('',#848,#687,#688);
#574=AXIS2_PLACEMENT_3D('',#851,#691,#692);
#575=AXIS2_PLACEMENT_3D('',#853,#694,#695);
#576=AXIS2_PLACEMENT_3D('',#855,#697,#698);
#577=AXIS2_PLACEMENT_3D('',#856,#699,#700);
#578=AXIS2_PLACEMENT_3D('',#859,#703,#704);
#579=AXIS2_PLACEMENT_3D('',#861,#706,#707);
#580=AXIS2_PLACEMENT_3D('',#864,#710,#711);
#581=AXIS2_PLACEMENT_3D('',#866,#713,#714);
#582=AXIS2_PLACEMENT_3D('',#868,#716,#717);
#583=AXIS2_PLACEMENT_3D('',#869,#718,#719);
#584=AXIS2_PLACEMENT_3D('',#871,#721,#722);
#585=DIRECTION('axis',(0.,0.,1.));
#586=DIRECTION('refdir',(1.,0.,0.));
#587=DIRECTION('center_axis',(1.38777878078143E-17,-1.73472347597681E-16,
1.));
#588=DIRECTION('ref_axis',(1.,1.99526342238512E-31,-1.38777878078143E-17));
#589=DIRECTION('',(-1.97118929808028E-31,1.,1.73472347597681E-16));
#590=DIRECTION('',(-1.,-1.99526342238512E-31,1.38777878078143E-17));
#591=DIRECTION('',(1.97118929808028E-31,-1.,-1.73472347597681E-16));
#592=DIRECTION('',(1.,1.99526342238512E-31,-1.38777878078143E-17));
#593=DIRECTION('',(1.97118929808028E-31,-1.,-1.73472347597681E-16));
#594=DIRECTION('',(-1.,-1.88904224477208E-31,-4.73545521495534E-17));
#595=DIRECTION('',(-1.97118929808028E-31,1.,1.73472347597681E-16));
#596=DIRECTION('',(1.,1.88904224477208E-31,4.73545521495534E-17));
#597=DIRECTION('center_axis',(-1.97118929808028E-31,1.,1.73472347597681E-16));
#598=DIRECTION('ref_axis',(1.,1.99526342238512E-31,-1.38777878078143E-17));
#599=DIRECTION('',(-1.38777878078143E-17,1.73472347597681E-16,-1.));
#600=DIRECTION('',(1.,1.99526342238512E-31,-1.38777878078143E-17));
#601=DIRECTION('',(-1.38777878078143E-17,1.73472347597681E-16,-1.));
#602=DIRECTION('center_axis',(1.,1.99526342238512E-31,-1.38777878078143E-17));
#603=DIRECTION('ref_axis',(1.97118929808028E-31,-1.,-1.73472347597681E-16));
#604=DIRECTION('',(-1.38777878078143E-17,1.73472347597681E-16,-1.));
#605=DIRECTION('',(1.97118929808028E-31,-1.,-1.73472347597681E-16));
#606=DIRECTION('center_axis',(1.97118929808028E-31,-1.,-1.73472347597681E-16));
#607=DIRECTION('ref_axis',(-1.,-1.99526342238512E-31,1.38777878078143E-17));
#608=DIRECTION('',(-1.38777878078143E-17,1.73472347597681E-16,-1.));
#609=DIRECTION('',(-1.,-1.99526342238512E-31,1.38777878078143E-17));
#610=DIRECTION('center_axis',(-1.,-1.99526342238512E-31,1.38777878078143E-17));
#611=DIRECTION('ref_axis',(-1.97118929808028E-31,1.,1.73472347597681E-16));
#612=DIRECTION('',(-1.97118929808028E-31,1.,1.73472347597681E-16));
#613=DIRECTION('center_axis',(1.38777878078143E-17,-1.73472347597681E-16,
1.));
#614=DIRECTION('ref_axis',(1.,1.99526342238512E-31,-1.38777878078143E-17));
#615=DIRECTION('',(-1.,-1.99526342238512E-31,1.38777878078143E-17));
#616=DIRECTION('',(1.97118929808028E-31,-1.,-1.73472347597681E-16));
#617=DIRECTION('',(1.,1.99526342238512E-31,-1.38777878078143E-17));
#618=DIRECTION('',(-1.97118929808028E-31,1.,1.73472347597681E-16));
#619=DIRECTION('center_axis',(-1.,-1.99526342238512E-31,1.38777878078143E-17));
#620=DIRECTION('ref_axis',(-1.97118929808028E-31,1.,1.73472347597681E-16));
#621=DIRECTION('',(-1.97118929808028E-31,1.,1.73472347597681E-16));
#622=DIRECTION('',(-1.38777878078143E-17,1.73472347597681E-16,-1.));
#623=DIRECTION('',(-1.38777878078143E-17,1.73472347597681E-16,-1.));
#624=DIRECTION('center_axis',(1.,1.99526342238512E-31,-1.38777878078143E-17));
#625=DIRECTION('ref_axis',(1.97118929808028E-31,-1.,-1.73472347597681E-16));
#626=DIRECTION('',(1.97118929808028E-31,-1.,-1.73472347597681E-16));
#627=DIRECTION('',(-1.38777878078143E-17,1.73472347597681E-16,-1.));
#628=DIRECTION('',(-1.38777878078143E-17,1.73472347597681E-16,-1.));
#629=DIRECTION('center_axis',(-1.,-1.99526342238512E-31,1.38777878078143E-17));
#630=DIRECTION('ref_axis',(-1.97118929808028E-31,1.,1.73472347597681E-16));
#631=DIRECTION('',(-1.97118929808028E-31,1.,1.73472347597681E-16));
#632=DIRECTION('',(-1.38777878078143E-17,1.73472347597681E-16,-1.));
#633=DIRECTION('',(-1.38777878078143E-17,1.73472347597681E-16,-1.));
#634=DIRECTION('center_axis',(1.,1.99526342238512E-31,-1.38777878078143E-17));
#635=DIRECTION('ref_axis',(1.97118929808028E-31,-1.,-1.73472347597681E-16));
#636=DIRECTION('',(1.97118929808028E-31,-1.,-1.73472347597681E-16));
#637=DIRECTION('',(-1.38777878078143E-17,1.73472347597681E-16,-1.));
#638=DIRECTION('',(-1.38777878078143E-17,1.73472347597681E-16,-1.));
#639=DIRECTION('center_axis',(-1.97118929808028E-31,1.,1.73472347597681E-16));
#640=DIRECTION('ref_axis',(1.38777878078143E-17,-1.73472347597681E-16,1.));
#641=DIRECTION('',(1.97215226305256E-31,1.,6.93889390390725E-18));
#642=DIRECTION('center_axis',(-1.97118929808028E-31,1.,1.73472347597681E-16));
#643=DIRECTION('ref_axis',(-1.85597151682403E-15,-1.73472347597681E-16,
1.));
#644=DIRECTION('center_axis',(-1.97118929808028E-31,1.,1.73472347597681E-16));
#645=DIRECTION('ref_axis',(-1.85597151682403E-15,-1.73472347597681E-16,
1.));
#646=DIRECTION('center_axis',(-1.97118929808028E-31,1.,1.73472347597681E-16));
#647=DIRECTION('ref_axis',(1.38777878078143E-17,-1.73472347597681E-16,1.));
#648=DIRECTION('',(-1.97215226305256E-31,-1.,-6.93889390390708E-18));
#649=DIRECTION('center_axis',(-1.97118929808028E-31,1.,1.73472347597681E-16));
#650=DIRECTION('ref_axis',(-3.76530308763669E-16,-1.73472347597681E-16,
1.));
#651=DIRECTION('center_axis',(-1.97118929808028E-31,1.,1.73472347597681E-16));
#652=DIRECTION('ref_axis',(-3.76530308763669E-16,-1.73472347597681E-16,
1.));
#653=DIRECTION('center_axis',(-1.97118929808028E-31,1.,1.73472347597681E-16));
#654=DIRECTION('ref_axis',(1.38777878078143E-17,-1.73472347597681E-16,1.));
#655=DIRECTION('',(1.97215226305256E-31,1.,6.93889390390725E-18));
#656=DIRECTION('center_axis',(-1.97118929808028E-31,1.,1.73472347597681E-16));
#657=DIRECTION('ref_axis',(-1.16020335731509E-16,-1.73472347597681E-16,
1.));
#658=DIRECTION('center_axis',(-1.97118929808028E-31,1.,1.73472347597681E-16));
#659=DIRECTION('ref_axis',(-1.16020335731509E-16,-1.73472347597681E-16,
1.));
#660=DIRECTION('center_axis',(-1.97118929808028E-31,1.,1.73472347597681E-16));
#661=DIRECTION('ref_axis',(1.38777878078143E-17,-1.73472347597681E-16,1.));
#662=DIRECTION('',(-1.97215226305256E-31,-1.,-6.93889390390725E-18));
#663=DIRECTION('center_axis',(-1.97118929808028E-31,1.,1.73472347597681E-16));
#664=DIRECTION('ref_axis',(1.38777878078143E-17,-1.73472347597681E-16,1.));
#665=DIRECTION('center_axis',(-1.97118929808028E-31,1.,1.73472347597681E-16));
#666=DIRECTION('ref_axis',(1.38777878078143E-17,-1.73472347597681E-16,1.));
#667=DIRECTION('center_axis',(-1.,-1.70610468867936E-15,1.11809254849069E-15));
#668=DIRECTION('ref_axis',(-1.70610468867936E-15,1.,6.93889390390727E-18));
#669=DIRECTION('',(1.85728399416023E-15,-1.,-6.93889390390744E-18));
#670=DIRECTION('',(1.11809254849069E-15,-6.93889390390536E-18,1.));
#671=DIRECTION('',(-1.70610468867936E-15,1.,6.93889390390727E-18));
#672=DIRECTION('',(-1.11809254849069E-15,6.93889390390536E-18,-1.));
#673=DIRECTION('',(-1.11809254849069E-15,6.93889390390536E-18,-1.));
#674=DIRECTION('',(-1.70610468867936E-15,1.,6.93889390390727E-18));
#675=DIRECTION('',(9.75984001338675E-16,-6.93889390390561E-18,1.));
#676=DIRECTION('',(1.55492538319849E-15,-1.,-6.9388939039071E-18));
#677=DIRECTION('center_axis',(-1.,0.,1.38777878078145E-17));
#678=DIRECTION('ref_axis',(1.38777878078145E-17,-6.93889390390725E-18,1.));
#679=DIRECTION('',(1.85728399416023E-15,-1.,-6.93889390390744E-18));
#680=DIRECTION('',(-1.11809254849069E-15,6.93889390390536E-18,-1.));
#681=DIRECTION('',(-1.70610468867936E-15,1.,6.93889390390727E-18));
#682=DIRECTION('',(1.11809254849069E-15,-6.93889390390536E-18,1.));
#683=DIRECTION('',(-9.6296497219362E-35,-1.,-6.93889390390725E-18));
#684=DIRECTION('',(1.38777878078145E-17,-6.93889390390725E-18,1.));
#685=DIRECTION('',(9.6296497219362E-35,1.,6.93889390390725E-18));
#686=DIRECTION('',(-1.38777878078145E-17,6.93889390390725E-18,-1.));
#687=DIRECTION('center_axis',(1.38777878078145E-17,-6.93889390390741E-18,
1.));
#688=DIRECTION('ref_axis',(1.85728399416023E-15,-1.,-6.93889390390744E-18));
#689=DIRECTION('',(1.,0.,-1.38777878078145E-17));
#690=DIRECTION('',(1.,0.,-1.38777878078145E-17));
#691=DIRECTION('center_axis',(9.62964972193359E-35,1.,6.93889390390536E-18));
#692=DIRECTION('ref_axis',(1.11809254849069E-15,-6.93889390390536E-18,1.));
#693=DIRECTION('',(1.,0.,-1.38777878078145E-17));
#694=DIRECTION('center_axis',(-1.38777878078145E-17,6.93889390390725E-18,
-1.));
#695=DIRECTION('ref_axis',(-1.70610468867936E-15,1.,6.93889390390727E-18));
#696=DIRECTION('',(1.,0.,-1.38777878078145E-17));
#697=DIRECTION('center_axis',(-9.62964972193359E-35,-1.,-6.93889390390536E-18));
#698=DIRECTION('ref_axis',(-1.11809254849069E-15,6.93889390390536E-18,-1.));
#699=DIRECTION('center_axis',(-1.38777878078145E-17,6.93889390390725E-18,
-1.));
#700=DIRECTION('ref_axis',(-1.70610468867936E-15,1.,6.93889390390727E-18));
#701=DIRECTION('',(1.,0.,-1.38777878078145E-17));
#702=DIRECTION('',(1.,0.,-1.38777878078145E-17));
#703=DIRECTION('center_axis',(9.62964972193393E-35,1.,6.93889390390561E-18));
#704=DIRECTION('ref_axis',(9.75984001338675E-16,-6.93889390390561E-18,1.));
#705=DIRECTION('',(1.,0.,-1.38777878078145E-17));
#706=DIRECTION('center_axis',(1.38777878078145E-17,-6.93889390390725E-18,
1.));
#707=DIRECTION('ref_axis',(-9.6296497219362E-35,-1.,-6.93889390390725E-18));
#708=DIRECTION('',(1.,0.,-1.38777878078145E-17));
#709=DIRECTION('',(1.,0.,-1.38777878078145E-17));
#710=DIRECTION('center_axis',(9.6296497219362E-35,1.,6.93889390390725E-18));
#711=DIRECTION('ref_axis',(1.38777878078145E-17,-6.93889390390725E-18,1.));
#712=DIRECTION('',(1.,0.,-1.38777878078145E-17));
#713=DIRECTION('center_axis',(1.38777878078145E-17,-6.93889390390708E-18,
1.));
#714=DIRECTION('ref_axis',(1.55492538319849E-15,-1.,-6.9388939039071E-18));
#715=DIRECTION('',(1.,0.,-1.38777878078145E-17));
#716=DIRECTION('center_axis',(-9.62964972193359E-35,-1.,-6.93889390390536E-18));
#717=DIRECTION('ref_axis',(-1.11809254849069E-15,6.93889390390536E-18,-1.));
#718=DIRECTION('center_axis',(-1.38777878078145E-17,6.93889390390725E-18,
-1.));
#719=DIRECTION('ref_axis',(9.6296497219362E-35,1.,6.93889390390725E-18));
#720=DIRECTION('',(1.,0.,-1.38777878078145E-17));
#721=DIRECTION('center_axis',(-9.6296497219362E-35,-1.,-6.93889390390725E-18));
#722=DIRECTION('ref_axis',(-1.38777878078145E-17,6.93889390390725E-18,-1.));
#723=CARTESIAN_POINT('',(0.,0.,0.));
#724=CARTESIAN_POINT('Origin',(1391.44142182947,6313.90864344783,-1735.55668350825));
#725=CARTESIAN_POINT('',(1893.44142182947,5811.90864344783,-1735.55668350825));
#726=CARTESIAN_POINT('',(1893.44142182947,6815.90864344783,-1735.55668350825));
#727=CARTESIAN_POINT('',(1893.44142182947,5811.90864344783,-1735.55668350825));
#728=CARTESIAN_POINT('',(889.441421829471,6815.90864344783,-1735.55668350825));
#729=CARTESIAN_POINT('',(1893.44142182947,6815.90864344783,-1735.55668350825));
#730=CARTESIAN_POINT('',(889.441421829471,5811.90864344783,-1735.55668350825));
#731=CARTESIAN_POINT('',(889.441421829471,6815.90864344783,-1735.55668350825));
#732=CARTESIAN_POINT('',(889.441421829471,5811.90864344783,-1735.55668350825));
#733=CARTESIAN_POINT('',(919.441421829471,6785.90864344783,-1735.55668350825));
#734=CARTESIAN_POINT('',(919.441421829471,5841.90864344783,-1735.55668350825));
#735=CARTESIAN_POINT('',(919.441421829471,5841.90864344783,-1735.55668350825));
#736=CARTESIAN_POINT('',(1863.44142182947,6785.90864344783,-1735.55668350825));
#737=CARTESIAN_POINT('',(919.441421829471,6785.90864344783,-1735.55668350825));
#738=CARTESIAN_POINT('',(1863.44142182947,5841.90864344783,-1735.55668350825));
#739=CARTESIAN_POINT('',(1863.44142182947,6785.90864344783,-1735.55668350825));
#740=CARTESIAN_POINT('',(1863.44142182947,5841.90864344783,-1735.55668350825));
#741=CARTESIAN_POINT('Origin',(889.441421829471,5811.90864344783,-1735.55668350825));
#742=CARTESIAN_POINT('',(889.441421829471,5811.90864344783,-1738.55668350825));
#743=CARTESIAN_POINT('',(889.441421829471,5811.90864344783,-1735.55668350825));
#744=CARTESIAN_POINT('',(1893.44142182947,5811.90864344783,-1738.55668350825));
#745=CARTESIAN_POINT('',(889.441421829471,5811.90864344783,-1738.55668350825));
#746=CARTESIAN_POINT('',(1893.44142182947,5811.90864344783,-1735.55668350825));
#747=CARTESIAN_POINT('Origin',(889.441421829471,6815.90864344783,-1735.55668350825));
#748=CARTESIAN_POINT('',(889.441421829471,6815.90864344783,-1738.55668350825));
#749=CARTESIAN_POINT('',(889.441421829471,6815.90864344783,-1735.55668350825));
#750=CARTESIAN_POINT('',(889.441421829471,6815.90864344783,-1738.55668350825));
#751=CARTESIAN_POINT('Origin',(1893.44142182947,6815.90864344783,-1735.55668350825));
#752=CARTESIAN_POINT('',(1893.44142182947,6815.90864344783,-1738.55668350825));
#753=CARTESIAN_POINT('',(1893.44142182947,6815.90864344783,-1735.55668350825));
#754=CARTESIAN_POINT('',(1893.44142182947,6815.90864344783,-1738.55668350825));
#755=CARTESIAN_POINT('Origin',(1893.44142182947,5811.90864344783,-1735.55668350825));
#756=CARTESIAN_POINT('',(1893.44142182947,5811.90864344783,-1738.55668350825));
#757=CARTESIAN_POINT('Origin',(1391.44142182947,6313.90864344783,-1738.55668350825));
#758=CARTESIAN_POINT('',(1861.44142182947,5843.90864344783,-1738.55668350825));
#759=CARTESIAN_POINT('',(921.44142182947,5843.90864344783,-1738.55668350825));
#760=CARTESIAN_POINT('',(1861.44142182947,5843.90864344783,-1738.55668350825));
#761=CARTESIAN_POINT('',(1861.44142182947,6783.90864344783,-1738.55668350825));
#762=CARTESIAN_POINT('',(1861.44142182947,6783.90864344783,-1738.55668350825));
#763=CARTESIAN_POINT('',(921.44142182947,6783.90864344783,-1738.55668350825));
#764=CARTESIAN_POINT('',(921.44142182947,6783.90864344783,-1738.55668350825));
#765=CARTESIAN_POINT('',(921.44142182947,5843.90864344783,-1738.55668350825));
#766=CARTESIAN_POINT('Origin',(921.44142182947,5843.90864344783,-1635.55668350825));
#767=CARTESIAN_POINT('',(921.44142182947,5843.90864344783,-1635.55668350825));
#768=CARTESIAN_POINT('',(921.44142182947,6783.90864344783,-1635.55668350825));
#769=CARTESIAN_POINT('',(921.44142182947,5843.90864344783,-1635.55668350825));
#770=CARTESIAN_POINT('',(921.44142182947,5843.90864344783,-1635.55668350825));
#771=CARTESIAN_POINT('',(921.44142182947,6783.90864344783,-1635.55668350825));
#772=CARTESIAN_POINT('Origin',(1861.44142182947,6783.90864344783,-1635.55668350825));
#773=CARTESIAN_POINT('',(1861.44142182947,6783.90864344783,-1635.55668350825));
#774=CARTESIAN_POINT('',(1861.44142182947,5843.90864344783,-1635.55668350825));
#775=CARTESIAN_POINT('',(1861.44142182947,6783.90864344783,-1635.55668350825));
#776=CARTESIAN_POINT('',(1861.44142182947,6783.90864344783,-1635.55668350825));
#777=CARTESIAN_POINT('',(1861.44142182947,5843.90864344783,-1635.55668350825));
#778=CARTESIAN_POINT('Origin',(1863.44142182947,5841.90864344783,-1635.55668350825));
#779=CARTESIAN_POINT('',(1863.44142182947,5841.90864344783,-1635.55668350825));
#780=CARTESIAN_POINT('',(1863.44142182947,6785.90864344783,-1635.55668350825));
#781=CARTESIAN_POINT('',(1863.44142182947,6785.90864344783,-1635.55668350825));
#782=CARTESIAN_POINT('',(1863.44142182947,5841.90864344783,-1635.55668350825));
#783=CARTESIAN_POINT('',(1863.44142182947,6785.90864344783,-1635.55668350825));
#784=CARTESIAN_POINT('Origin',(919.441421829471,6785.90864344783,-1635.55668350825));
#785=CARTESIAN_POINT('',(919.441421829471,6785.90864344783,-1635.55668350825));
#786=CARTESIAN_POINT('',(919.441421829471,5841.90864344783,-1635.55668350825));
#787=CARTESIAN_POINT('',(919.441421829471,5841.90864344783,-1635.55668350825));
#788=CARTESIAN_POINT('',(919.441421829471,6785.90864344783,-1635.55668350825));
#789=CARTESIAN_POINT('',(919.441421829471,5841.90864344783,-1635.55668350825));
#790=CARTESIAN_POINT('Origin',(769.441421829471,6313.90864344783,-1635.55668350825));
#791=CARTESIAN_POINT('',(769.441421829473,5843.90864344783,-1483.55668350825));
#792=CARTESIAN_POINT('',(769.441421829473,6783.90864344783,-1483.55668350825));
#793=CARTESIAN_POINT('',(769.441421829473,6078.90864344783,-1483.55668350825));
#794=CARTESIAN_POINT('Origin',(769.441421829471,5843.90864344783,-1635.55668350825));
#795=CARTESIAN_POINT('Origin',(769.441421829471,6783.90864344783,-1635.55668350825));
#796=CARTESIAN_POINT('Origin',(769.441421829471,6313.90864344783,-1635.55668350825));
#797=CARTESIAN_POINT('',(769.441421829473,6783.90864344783,-543.556683508247));
#798=CARTESIAN_POINT('',(769.441421829473,5843.90864344783,-543.556683508247));
#799=CARTESIAN_POINT('',(769.441421829473,6548.90864344783,-543.556683508247));
#800=CARTESIAN_POINT('Origin',(769.441421829471,6783.90864344783,-1635.55668350825));
#801=CARTESIAN_POINT('Origin',(769.441421829471,5843.90864344783,-1635.55668350825));
#802=CARTESIAN_POINT('Origin',(769.441421829471,6313.90864344783,-1635.55668350825));
#803=CARTESIAN_POINT('',(769.441421829473,5841.90864344783,-541.556683508247));
#804=CARTESIAN_POINT('',(769.441421829473,6785.90864344783,-541.556683508247));
#805=CARTESIAN_POINT('',(769.441421829473,6077.90864344783,-541.556683508247));
#806=CARTESIAN_POINT('Origin',(769.441421829471,5841.90864344783,-1635.55668350825));
#807=CARTESIAN_POINT('Origin',(769.441421829471,6785.90864344783,-1635.55668350825));
#808=CARTESIAN_POINT('Origin',(769.441421829471,6313.90864344783,-1635.55668350825));
#809=CARTESIAN_POINT('',(769.441421829473,6785.90864344783,-1485.55668350825));
#810=CARTESIAN_POINT('',(769.441421829473,5841.90864344783,-1485.55668350825));
#811=CARTESIAN_POINT('',(769.441421829473,6549.90864344783,-1485.55668350825));
#812=CARTESIAN_POINT('Origin',(769.441421829471,6785.90864344783,-1635.55668350825));
#813=CARTESIAN_POINT('Origin',(769.441421829471,5841.90864344783,-1635.55668350825));
#814=CARTESIAN_POINT('Origin',(716.441421829471,6313.90864344783,-1013.55668350825));
#815=CARTESIAN_POINT('',(716.44142182947,6813.90864344783,-1513.55668350825));
#816=CARTESIAN_POINT('',(716.441421829472,5813.90864344783,-1513.55668350825));
#817=CARTESIAN_POINT('',(716.44142182947,6783.90864344783,-1513.55668350825));
#818=CARTESIAN_POINT('',(716.441421829473,5813.90864344783,-513.556683508247));
#819=CARTESIAN_POINT('',(716.441421829472,5813.90864344783,-1513.55668350825));
#820=CARTESIAN_POINT('',(716.441421829471,6813.90864344783,-513.556683508247));
#821=CARTESIAN_POINT('',(716.441421829473,5813.90864344783,-513.556683508247));
#822=CARTESIAN_POINT('',(716.441421829471,6813.90864344783,-513.556683508247));
#823=CARTESIAN_POINT('',(716.441421829473,5843.90864344783,-543.556683508247));
#824=CARTESIAN_POINT('',(716.441421829472,5843.90864344783,-1483.55668350825));
#825=CARTESIAN_POINT('',(716.441421829473,5843.90864344783,-513.556683508247));
#826=CARTESIAN_POINT('',(716.44142182947,6783.90864344783,-1483.55668350825));
#827=CARTESIAN_POINT('',(716.441421829472,5843.90864344783,-1483.55668350825));
#828=CARTESIAN_POINT('',(716.441421829471,6783.90864344783,-543.556683508247));
#829=CARTESIAN_POINT('',(716.44142182947,6783.90864344783,-1513.55668350825));
#830=CARTESIAN_POINT('',(716.441421829471,6783.90864344783,-543.556683508247));
#831=CARTESIAN_POINT('Origin',(719.441421829473,6313.90864344783,-1013.55668350825));
#832=CARTESIAN_POINT('',(719.44142182947,6813.90864344783,-1513.55668350825));
#833=CARTESIAN_POINT('',(719.441421829472,5813.90864344783,-1513.55668350825));
#834=CARTESIAN_POINT('',(719.44142182947,6783.90864344783,-1513.55668350825));
#835=CARTESIAN_POINT('',(719.441421829471,6813.90864344783,-513.556683508247));
#836=CARTESIAN_POINT('',(719.441421829471,6813.90864344783,-513.556683508247));
#837=CARTESIAN_POINT('',(719.441421829473,5813.90864344783,-513.556683508247));
#838=CARTESIAN_POINT('',(719.441421829473,5813.90864344783,-513.556683508247));
#839=CARTESIAN_POINT('',(719.441421829472,5813.90864344783,-1513.55668350825));
#840=CARTESIAN_POINT('',(719.441421829471,6785.90864344783,-541.556683508247));
#841=CARTESIAN_POINT('',(719.441421829471,5841.90864344783,-541.556683508247));
#842=CARTESIAN_POINT('',(719.441421829473,6077.90864344783,-541.556683508247));
#843=CARTESIAN_POINT('',(719.441421829471,6785.90864344783,-1485.55668350825));
#844=CARTESIAN_POINT('',(719.441421829473,6785.90864344783,-777.556683508247));
#845=CARTESIAN_POINT('',(719.441421829471,5841.90864344783,-1485.55668350825));
#846=CARTESIAN_POINT('',(719.441421829473,6549.90864344783,-1485.55668350825));
#847=CARTESIAN_POINT('',(719.441421829473,5841.90864344783,-1249.55668350825));
#848=CARTESIAN_POINT('Origin',(716.44142182947,6813.90864344783,-1513.55668350825));
#849=CARTESIAN_POINT('',(716.44142182947,6813.90864344783,-1513.55668350825));
#850=CARTESIAN_POINT('',(716.441421829472,5813.90864344783,-1513.55668350825));
#851=CARTESIAN_POINT('Origin',(716.441421829472,5813.90864344783,-1513.55668350825));
#852=CARTESIAN_POINT('',(716.441421829473,5813.90864344783,-513.556683508247));
#853=CARTESIAN_POINT('Origin',(716.441421829473,5813.90864344783,-513.556683508247));
#854=CARTESIAN_POINT('',(716.441421829471,6813.90864344783,-513.556683508247));
#855=CARTESIAN_POINT('Origin',(716.441421829471,6813.90864344783,-513.556683508247));
#856=CARTESIAN_POINT('Origin',(716.441421829472,5843.90864344783,-1483.55668350825));
#857=CARTESIAN_POINT('',(716.44142182947,6783.90864344783,-1483.55668350825));
#858=CARTESIAN_POINT('',(716.441421829472,5843.90864344783,-1483.55668350825));
#859=CARTESIAN_POINT('Origin',(716.44142182947,6783.90864344783,-1483.55668350825));
#860=CARTESIAN_POINT('',(716.441421829471,6783.90864344783,-543.556683508247));
#861=CARTESIAN_POINT('Origin',(719.441421829471,6785.90864344783,-1485.55668350825));
#862=CARTESIAN_POINT('',(719.441421829471,5841.90864344783,-1485.55668350825));
#863=CARTESIAN_POINT('',(719.441421829471,6785.90864344783,-1485.55668350825));
#864=CARTESIAN_POINT('Origin',(719.441421829471,5841.90864344783,-1485.55668350825));
#865=CARTESIAN_POINT('',(719.441421829471,5841.90864344783,-541.556683508247));
#866=CARTESIAN_POINT('Origin',(716.441421829471,6783.90864344783,-543.556683508247));
#867=CARTESIAN_POINT('',(716.441421829473,5843.90864344783,-543.556683508247));
#868=CARTESIAN_POINT('Origin',(716.441421829473,5843.90864344783,-543.556683508247));
#869=CARTESIAN_POINT('Origin',(719.441421829471,5841.90864344783,-541.556683508247));
#870=CARTESIAN_POINT('',(719.441421829471,6785.90864344783,-541.556683508247));
#871=CARTESIAN_POINT('Origin',(719.441421829471,6785.90864344783,-541.556683508247));
#872=UNCERTAINTY_MEASURE_WITH_UNIT(LENGTH_MEASURE(0.01),#876,
'DISTANCE_ACCURACY_VALUE',
'Maximum model space distance between geometric entities at asserted c
onnectivities');
#873=UNCERTAINTY_MEASURE_WITH_UNIT(LENGTH_MEASURE(0.01),#876,
'DISTANCE_ACCURACY_VALUE',
'Maximum model space distance between geometric entities at asserted c
onnectivities');
#874=(
GEOMETRIC_REPRESENTATION_CONTEXT(3)
GLOBAL_UNCERTAINTY_ASSIGNED_CONTEXT((#872))
GLOBAL_UNIT_ASSIGNED_CONTEXT((#876,#878,#879))
REPRESENTATION_CONTEXT('','3D')
);
#875=(
GEOMETRIC_REPRESENTATION_CONTEXT(3)
GLOBAL_UNCERTAINTY_ASSIGNED_CONTEXT((#873))
GLOBAL_UNIT_ASSIGNED_CONTEXT((#876,#878,#879))
REPRESENTATION_CONTEXT('','3D')
);
#876=(
LENGTH_UNIT()
NAMED_UNIT(*)
SI_UNIT(.MILLI.,.METRE.)
);
#877=(
LENGTH_UNIT()
NAMED_UNIT(*)
SI_UNIT($,.METRE.)
);
#878=(
NAMED_UNIT(*)
PLANE_ANGLE_UNIT()
SI_UNIT($,.RADIAN.)
);
#879=(
NAMED_UNIT(*)
SI_UNIT($,.STERADIAN.)
SOLID_ANGLE_UNIT()
);
#880=SHAPE_DEFINITION_REPRESENTATION(#881,#882);
#881=PRODUCT_DEFINITION_SHAPE('',$,#884);
#882=SHAPE_REPRESENTATION('',(#548),#874);
#883=PRODUCT_DEFINITION_CONTEXT('part definition',#888,'design');
#884=PRODUCT_DEFINITION('2026-09-12-16-48-21-846','bend 1000x1000 90\X\B0',
#885,#883);
#885=PRODUCT_DEFINITION_FORMATION('',$,#890);
#886=PRODUCT_RELATED_PRODUCT_CATEGORY('bend 1000x1000 90\X\B0',
'bend 1000x1000 90\X\B0',(#890));
#887=APPLICATION_PROTOCOL_DEFINITION('international standard',
'automotive_design',2009,#888);
#888=APPLICATION_CONTEXT(
'Core Data for Automotive Mechanical Design Process');
#889=PRODUCT_CONTEXT('part definition',#888,'mechanical');
#890=PRODUCT('2026-09-12-16-48-21-846','bend 1000x1000 90\X\B0',$,(#889));
#891=PRESENTATION_STYLE_ASSIGNMENT((#893));
#892=PRESENTATION_STYLE_ASSIGNMENT((#894));
#893=SURFACE_STYLE_USAGE(.BOTH.,#895);
#894=SURFACE_STYLE_USAGE(.BOTH.,#896);
#895=SURFACE_SIDE_STYLE('',(#897));
#896=SURFACE_SIDE_STYLE('',(#898));
#897=SURFACE_STYLE_FILL_AREA(#899);
#898=SURFACE_STYLE_FILL_AREA(#900);
#899=FILL_AREA_STYLE('Steel - Satin',(#901));
#900=FILL_AREA_STYLE('Opaque(160,160,160)',(#902));
#901=FILL_AREA_STYLE_COLOUR('Steel - Satin',#903);
#902=FILL_AREA_STYLE_COLOUR('Opaque(160,160,160)',#904);
#903=COLOUR_RGB('Steel - Satin',0.627450980392157,0.627450980392157,0.627450980392157);
#904=COLOUR_RGB('Opaque(160,160,160)',0.627450980392157,0.627450980392157,
0.627450980392157);
ENDSEC;
END-ISO-10303-21;
